<svg
          xmlns="http://www.w3.org/2000/svg"
          xmlns:xlink="http://www.w3.org/1999/xlink"
          width="247px"
          height="512px"
        >
          <path
            fill-rule="evenodd"
            stroke-width="1px"
            stroke="rgb(73, 138, 243)"
            fill="rgb(255, 255, 255)"
            d="M205.505,508.498 L44.027,508.498 C23.130,508.498 6.033,491.369 6.033,470.433 L6.033,182.088 C6.033,182.088 5.375,182.088 4.766,182.088 C4.156,182.088 3.500,181.358 3.500,180.660 L3.500,165.752 C3.500,165.054 4.156,164.642 4.766,164.642 C5.375,164.642 6.033,164.642 6.033,164.642 L6.033,140.533 C6.033,140.533 5.375,140.533 4.766,140.533 C4.156,140.533 3.500,139.804 3.500,139.106 L3.500,124.197 C3.500,123.499 4.156,123.087 4.766,123.087 C5.375,123.087 6.033,123.087 6.033,123.087 L6.033,97.710 C6.033,97.710 5.375,97.710 4.766,97.710 C4.156,97.710 3.500,96.981 3.500,96.283 L3.500,76.615 C3.500,75.917 4.156,75.505 4.766,75.505 C5.375,75.505 6.033,75.505 6.033,75.505 L6.033,43.784 C6.033,22.848 23.130,5.719 44.027,5.719 L164.977,5.719 C164.977,5.719 164.977,5.219 164.977,4.609 C164.977,3.998 165.547,3.498 166.243,3.498 L202.972,3.498 C203.668,3.498 204.238,3.998 204.238,4.609 C204.238,5.219 204.238,5.719 204.238,5.719 L205.505,5.719 C226.402,5.719 243.500,22.848 243.500,43.784 L243.500,470.433 C243.500,491.369 226.402,508.498 205.505,508.498 Z"
          />
          <path
            fill-rule="evenodd"
            stroke-width="1px"
            stroke="rgb(73, 138, 243)"
            fill-opacity="0"
            fill="rgb(255, 255, 255)"
            d="M143.685,52.494 L105.290,52.494 C102.640,52.494 100.491,50.483 100.491,48.001 C100.491,45.520 102.640,43.509 105.290,43.509 L143.685,43.509 C146.335,43.509 148.484,45.520 148.484,48.001 C148.484,50.483 146.335,52.494 143.685,52.494 ZM123.512,34.493 C120.750,34.493 118.512,32.259 118.512,29.500 C118.512,26.743 120.750,24.508 123.512,24.508 C126.272,24.508 128.511,26.743 128.511,29.500 C128.511,32.259 126.272,34.493 123.512,34.493 Z"
          />
          <path
            fill-rule="evenodd"
            stroke-width="1px"
            stroke="rgb(73, 138, 243)"
            fill-opacity="0"
            fill="rgb(255, 255, 255)"
            d="M145.663,472.970 C145.663,460.708 135.740,450.765 123.499,450.765 C111.259,450.765 101.336,460.708 101.336,472.970 C101.336,485.234 111.259,495.176 123.499,495.176 C135.740,495.176 145.663,485.234 145.663,472.970 Z"
          />
          <path
            fill-rule="evenodd"
            stroke-width="1px"
            stroke="rgb(73, 138, 243)"
            fill-opacity="0"
            fill="rgb(255, 255, 255)"
            d="M128.249,464.697 L119.067,464.697 C116.977,464.697 115.267,466.410 115.267,468.504 L115.267,477.702 C115.267,479.796 116.977,481.509 119.067,481.509 L128.249,481.509 C130.338,481.509 132.048,479.796 132.048,477.702 L132.048,468.504 C132.048,466.410 130.338,464.697 128.249,464.697 Z"
          />
          <path
            fill-rule="evenodd"
            stroke-width="1px"
            stroke="rgb(119, 119, 119)"
            fill="rgb(205, 205, 205)"
            d="M225.819,437.126 L23.180,437.126 L23.180,76.774 L225.819,76.774 L225.819,437.126 Z"
          />
          <text
            kerning="auto"
            font-family="Myriad Pro"
            fill="rgb(0, 0, 0)"
            transform="matrix( 4.29337618220431, 0, 0, 4.29337618220431,106.349395539278, 267.640934186258)"
            font-size="18.168px"
          >
            <tspan font-size="18.168px" font-family="Simple" fill="#FFFFFF">
              &#57394;
            </tspan>
          </text>
        </svg>